<?xml version="1.0" encoding="UTF-8"?><svg xmlns="http://www.w3.org/2000/svg" xmlns:xlink="http://www.w3.org/1999/xlink" contentScriptType="text/ecmascript" width="375" zoomAndPan="magnify" contentStyleType="text/css" viewBox="0 0 375 419.999985" height="419.999985" preserveAspectRatio="xMidYMid meet" version="1.0"><defs><clipPath id="clip-0"><path d="M 15.390625 75.335938 L 359.460938 75.335938 L 359.460938 420 L 15.390625 420 Z M 15.390625 75.335938 " clip-rule="nonzero"/></clipPath></defs><path fill="rgb(27.449036%, 75.289917%, 61.569214%)" d="M 153.765625 151.816406 C 141.554688 151.816406 131.621094 161.753906 131.621094 173.96875 C 131.621094 186.183594 141.554688 196.125 153.765625 196.125 C 165.976562 196.125 175.910156 186.183594 175.910156 173.96875 C 175.910156 161.753906 165.976562 151.816406 153.765625 151.816406 Z M 153.765625 200.601562 C 139.085938 200.601562 127.140625 188.65625 127.140625 173.96875 C 127.140625 159.28125 139.085938 147.335938 153.765625 147.335938 C 168.445312 147.335938 180.386719 159.28125 180.386719 173.96875 C 180.386719 188.65625 168.445312 200.601562 153.765625 200.601562 " fill-opacity="1" fill-rule="nonzero"/><path fill="rgb(27.449036%, 75.289917%, 61.569214%)" d="M 218.871094 151.816406 C 206.664062 151.816406 196.730469 161.753906 196.730469 173.96875 C 196.730469 186.183594 206.664062 196.125 218.871094 196.125 C 231.085938 196.125 241.019531 186.183594 241.019531 173.96875 C 241.019531 161.753906 231.085938 151.816406 218.871094 151.816406 Z M 218.871094 200.601562 C 204.195312 200.601562 192.25 188.65625 192.25 173.96875 C 192.25 159.28125 204.195312 147.335938 218.871094 147.335938 C 233.550781 147.335938 245.496094 159.28125 245.496094 173.96875 C 245.496094 188.65625 233.550781 200.601562 218.871094 200.601562 " fill-opacity="1" fill-rule="nonzero"/><path fill="rgb(27.449036%, 75.289917%, 61.569214%)" d="M 186.320312 161.488281 C 186.320312 161.488281 180.503906 161.335938 177.25 166.296875 L 178.148438 172.519531 C 178.148438 172.519531 179.964844 167.003906 186.320312 167.003906 C 192.675781 167.003906 194.488281 172.519531 194.488281 172.519531 L 195.386719 166.296875 C 192.132812 161.335938 186.320312 161.488281 186.320312 161.488281 " fill-opacity="1" fill-rule="nonzero"/><path fill="rgb(27.449036%, 75.289917%, 61.569214%)" d="M 129.570312 179.171875 L 122.753906 179.171875 C 122.550781 179.171875 122.382812 179.007812 122.382812 178.804688 L 122.382812 172.882812 C 122.382812 172.683594 122.550781 172.519531 122.753906 172.519531 L 129.570312 172.519531 C 129.773438 172.519531 129.9375 172.683594 129.9375 172.882812 L 129.9375 178.804688 C 129.9375 179.007812 129.773438 179.171875 129.570312 179.171875 " fill-opacity="1" fill-rule="nonzero"/><path fill="rgb(27.449036%, 75.289917%, 61.569214%)" d="M 243.066406 179.171875 L 249.886719 179.171875 C 250.089844 179.171875 250.253906 179.007812 250.253906 178.804688 L 250.253906 172.882812 C 250.253906 172.683594 250.089844 172.519531 249.886719 172.519531 L 243.066406 172.519531 C 242.863281 172.519531 242.699219 172.683594 242.699219 172.882812 L 242.699219 178.804688 C 242.699219 179.007812 242.863281 179.171875 243.066406 179.171875 " fill-opacity="1" fill-rule="nonzero"/><path fill="rgb(27.449036%, 75.289917%, 61.569214%)" d="M 187.425781 245.085938 C 180.257812 245.085938 173.296875 242.523438 167.816406 237.867188 C 166.296875 236.582031 166.113281 234.308594 167.402344 232.789062 C 168.691406 231.269531 170.964844 231.085938 172.476562 232.375 C 176.65625 235.921875 181.960938 237.875 187.425781 237.875 C 192.886719 237.875 198.195312 235.921875 202.367188 232.375 C 203.886719 231.085938 206.160156 231.269531 207.449219 232.789062 C 208.734375 234.308594 208.550781 236.582031 207.03125 237.867188 C 201.558594 242.523438 194.589844 245.085938 187.425781 245.085938 " fill-opacity="1" fill-rule="nonzero"/><path fill="rgb(27.449036%, 75.289917%, 61.569214%)" d="M 165.4375 173.96875 C 165.4375 178.992188 161.367188 183.0625 156.351562 183.0625 C 151.328125 183.0625 147.261719 178.992188 147.261719 173.96875 C 147.261719 168.945312 151.328125 164.875 156.351562 164.875 C 161.367188 164.875 165.4375 168.945312 165.4375 173.96875 " fill-opacity="1" fill-rule="nonzero"/><path fill="rgb(27.449036%, 75.289917%, 61.569214%)" d="M 209.410156 173.96875 C 209.410156 178.992188 213.480469 183.0625 218.5 183.0625 C 223.519531 183.0625 227.589844 178.992188 227.589844 173.96875 C 227.589844 168.945312 223.519531 164.875 218.5 164.875 C 213.480469 164.875 209.410156 168.945312 209.410156 173.96875 " fill-opacity="1" fill-rule="nonzero"/><g clip-path="url(#clip-0)"><path fill="rgb(27.449036%, 75.289917%, 61.569214%)" d="M 187.425781 270.585938 C 187.425781 270.585938 154.046875 278.539062 131.324219 214.890625 C 131.324219 214.890625 115.5 175.519531 127.140625 132.992188 C 131.621094 85.734375 208.648438 68.542969 241.019531 112.925781 C 241.019531 112.925781 257.820312 167.777344 241.019531 213.242188 C 229.992188 281.554688 187.425781 270.585938 187.425781 270.585938 Z M 287.761719 420.011719 L 359.460938 420.011719 L 352.980469 362.84375 C 351.515625 354.796875 317.136719 340.160156 291.539062 327.722656 C 265.941406 315.285156 227.046875 281.621094 227.046875 281.621094 L 227.046875 265.527344 C 239.355469 252.347656 251.304688 224.539062 255.695312 219.417969 C 260.082031 214.296875 266.667969 192.347656 266.667969 186.492188 C 266.667969 180.636719 259.351562 175.519531 259.351562 175.519531 L 259.351562 136.78125 C 252.765625 71.699219 187.425781 75.804688 187.425781 75.804688 C 187.425781 75.804688 122.085938 71.699219 115.5 136.78125 L 115.5 175.519531 C 115.5 175.519531 108.179688 180.636719 108.179688 186.492188 C 108.179688 192.347656 114.765625 214.296875 119.15625 219.417969 C 123.542969 224.539062 135.492188 252.347656 147.804688 265.527344 L 147.804688 281.621094 C 147.804688 281.621094 108.910156 315.285156 83.308594 327.722656 C 57.714844 340.160156 23.332031 354.796875 21.871094 362.84375 L 15.390625 420.011719 L 287.761719 420.011719 " fill-opacity="1" fill-rule="nonzero"/></g><path fill="rgb(27.449036%, 75.289917%, 61.569214%)" d="M 110.152344 185.15625 C 110.152344 179.570312 117.132812 174.6875 117.132812 174.6875 L 117.132812 163.839844 C 116.628906 163.503906 116.160156 163.125 115.644531 162.8125 C 115.644531 162.8125 116.21875 162.863281 117.132812 162.925781 L 117.132812 137.722656 C 118.859375 120.671875 124.820312 104.925781 132.546875 96.382812 C 138.257812 43.652344 103.273438 15.324219 87.507812 7.042969 C 108.082031 62.753906 87.746094 67.613281 87.808594 65.308594 C 75.824219 33.683594 42.46875 26.867188 42.46875 26.867188 C 58.820312 50.855469 54.667969 97.453125 54.667969 97.453125 C 60.382812 180.703125 96.492188 212.6875 125.644531 224.921875 C 123.519531 220.992188 121.785156 217.933594 120.621094 216.578125 C 116.433594 211.691406 110.152344 190.746094 110.152344 185.15625 " fill-opacity="1" fill-rule="nonzero"/><path fill="rgb(27.449036%, 75.289917%, 61.569214%)" d="M 288.910156 83.660156 C 316.457031 36.875 293.007812 0 293.007812 0 C 277.167969 49.671875 240.703125 60.675781 240.703125 96.847656 C 248.398438 105.382812 254.335938 117.386719 256.058594 134.386719 L 256.058594 150.390625 C 256.757812 149.378906 257.453125 148.34375 258.136719 147.210938 C 258.136719 147.210938 257.820312 152.792969 256.058594 160.988281 L 256.058594 171.351562 C 256.058594 171.351562 263.042969 176.234375 263.042969 181.820312 C 263.042969 187.40625 256.757812 208.355469 252.570312 213.242188 C 251.558594 214.421875 250.121094 216.875 248.371094 220.074219 C 331.386719 173.582031 330.71875 42.703125 330.71875 42.703125 C 299.109375 92.863281 288.910156 83.660156 288.910156 83.660156 " fill-opacity="1" fill-rule="nonzero"/><path fill="rgb(27.449036%, 75.289917%, 61.569214%)" d="M 175.910156 212.621094 L 156.351562 224.921875 L 180.386719 224.921875 L 180.386719 212.621094 L 175.910156 212.621094 " fill-opacity="1" fill-rule="nonzero"/><path fill="rgb(27.449036%, 75.289917%, 61.569214%)" d="M 198.9375 212.621094 L 218.496094 224.921875 L 194.460938 224.921875 L 194.460938 212.621094 L 198.9375 212.621094 " fill-opacity="1" fill-rule="nonzero"/></svg>