<?xml version="1.0" encoding="UTF-8"?><svg xmlns="http://www.w3.org/2000/svg" xmlns:xlink="http://www.w3.org/1999/xlink" contentScriptType="text/ecmascript" width="375" zoomAndPan="magnify" contentStyleType="text/css" viewBox="0 0 375 195.000001" height="195.000001" preserveAspectRatio="xMidYMid meet" version="1.0"><defs><clipPath id="clip-0"><path d="M 1 50 L 73 50 L 73 174.792969 L 1 174.792969 Z M 1 50 " clip-rule="nonzero"/></clipPath><clipPath id="clip-1"><path d="M 143 50 L 232 50 L 232 174.792969 L 143 174.792969 Z M 143 50 " clip-rule="nonzero"/></clipPath><clipPath id="clip-2"><path d="M 249 50 L 321 50 L 321 174.792969 L 249 174.792969 Z M 249 50 " clip-rule="nonzero"/></clipPath><clipPath id="clip-3"><path d="M 320 15.109375 L 374 15.109375 L 374 104 L 320 104 Z M 320 15.109375 " clip-rule="nonzero"/></clipPath></defs><g clip-path="url(#clip-0)"><path fill="rgb(27.449036%, 75.289917%, 61.569214%)" d="M 63.449219 174.792969 L 10.285156 174.792969 C 5.394531 174.792969 1.421875 170.816406 1.421875 165.921875 L 1.421875 59.464844 C 1.421875 54.570312 5.394531 50.59375 10.285156 50.59375 L 63.449219 50.59375 C 68.339844 50.59375 72.308594 54.570312 72.308594 59.464844 C 72.308594 64.363281 68.339844 68.335938 63.449219 68.335938 L 19.144531 68.335938 L 19.144531 157.046875 L 63.449219 157.046875 C 68.339844 157.046875 72.308594 161.023438 72.308594 165.921875 C 72.308594 170.816406 68.339844 174.792969 63.449219 174.792969 Z M 63.449219 174.792969 " fill-opacity="1" fill-rule="nonzero"/></g><path fill="rgb(27.449036%, 75.289917%, 61.569214%)" d="M 45.726562 121.5625 L 10.285156 121.5625 C 5.394531 121.5625 1.421875 117.589844 1.421875 112.691406 C 1.421875 107.796875 5.394531 103.820312 10.285156 103.820312 L 45.726562 103.820312 C 50.617188 103.820312 54.585938 107.796875 54.585938 112.691406 C 54.585938 117.589844 50.617188 121.5625 45.726562 121.5625 Z M 45.726562 121.5625 " fill-opacity="1" fill-rule="nonzero"/><path fill="rgb(27.449036%, 75.289917%, 61.569214%)" d="M 116.613281 103.820312 L 81.171875 103.820312 C 76.277344 103.820312 72.308594 99.847656 72.308594 94.949219 C 72.308594 90.054688 76.277344 86.078125 81.171875 86.078125 L 116.613281 86.078125 C 121.503906 86.078125 125.472656 90.054688 125.472656 94.949219 C 125.472656 99.847656 121.503906 103.820312 116.613281 103.820312 Z M 116.613281 103.820312 " fill-opacity="1" fill-rule="nonzero"/><path fill="rgb(27.449036%, 75.289917%, 61.569214%)" d="M 116.613281 139.304688 L 81.171875 139.304688 C 76.277344 139.304688 72.308594 135.332031 72.308594 130.433594 C 72.308594 125.539062 76.277344 121.5625 81.171875 121.5625 L 116.613281 121.5625 C 121.503906 121.5625 125.472656 125.539062 125.472656 130.433594 C 125.472656 135.332031 121.503906 139.304688 116.613281 139.304688 Z M 116.613281 139.304688 " fill-opacity="1" fill-rule="nonzero"/><g clip-path="url(#clip-1)"><path fill="rgb(27.449036%, 75.289917%, 61.569214%)" d="M 222.941406 174.792969 C 218.050781 174.792969 214.082031 170.816406 214.082031 165.921875 L 214.082031 97.042969 L 195.421875 134.390625 C 192.410156 140.390625 182.574219 140.390625 179.5625 134.390625 L 160.917969 97.042969 L 160.917969 165.921875 C 160.917969 170.816406 156.949219 174.792969 152.058594 174.792969 C 147.164062 174.792969 143.195312 170.816406 143.195312 165.921875 L 143.195312 59.464844 C 143.195312 55.367188 146.015625 51.765625 150.019531 50.84375 C 154.078125 49.777344 158.152344 51.835938 159.996094 55.507812 L 187.5 110.597656 L 215.023438 55.507812 C 216.863281 51.835938 220.871094 49.796875 225 50.84375 C 228.984375 51.765625 231.804688 55.367188 231.804688 59.464844 L 231.804688 165.921875 C 231.804688 170.816406 227.835938 174.792969 222.941406 174.792969 Z M 222.941406 174.792969 " fill-opacity="1" fill-rule="nonzero"/></g><g clip-path="url(#clip-2)"><path fill="rgb(27.449036%, 75.289917%, 61.569214%)" d="M 284.96875 174.792969 C 265.421875 174.792969 249.527344 158.875 249.527344 139.304688 L 249.527344 86.078125 C 249.527344 66.507812 265.421875 50.59375 284.96875 50.59375 C 304.515625 50.59375 320.414062 66.507812 320.414062 86.078125 C 320.414062 90.976562 316.441406 94.949219 311.550781 94.949219 C 306.660156 94.949219 302.691406 90.976562 302.691406 86.078125 C 302.691406 76.285156 294.75 68.335938 284.96875 68.335938 C 275.1875 68.335938 267.246094 76.285156 267.246094 86.078125 L 267.246094 139.304688 C 267.246094 149.101562 275.1875 157.046875 284.96875 157.046875 C 294.75 157.046875 302.691406 149.101562 302.691406 139.304688 C 302.691406 134.410156 306.660156 130.433594 311.550781 130.433594 C 316.441406 130.433594 320.414062 134.410156 320.414062 139.304688 C 320.414062 158.875 304.515625 174.792969 284.96875 174.792969 Z M 284.96875 174.792969 " fill-opacity="1" fill-rule="nonzero"/></g><g clip-path="url(#clip-3)"><path fill="rgb(27.449036%, 75.289917%, 61.569214%)" d="M 364.714844 103.820312 L 329.273438 103.820312 C 325.871094 103.820312 322.769531 101.871094 321.296875 98.800781 C 319.808594 95.714844 320.21875 92.078125 322.363281 89.414062 L 352.277344 51.996094 C 354.578125 49.085938 355.855469 45.433594 355.855469 41.722656 C 355.855469 36.84375 351.867188 32.851562 346.996094 32.851562 C 342.121094 32.851562 338.132812 36.84375 338.132812 41.722656 C 338.132812 46.621094 334.164062 50.59375 329.273438 50.59375 C 324.382812 50.59375 320.414062 46.621094 320.414062 41.722656 C 320.414062 27.050781 332.339844 15.109375 346.996094 15.109375 C 361.648438 15.109375 373.578125 27.050781 373.578125 41.722656 C 373.578125 49.460938 370.9375 57.015625 366.097656 63.066406 L 347.703125 86.078125 L 364.714844 86.078125 C 369.605469 86.078125 373.578125 90.054688 373.578125 94.949219 C 373.578125 99.847656 369.605469 103.820312 364.714844 103.820312 Z M 364.714844 103.820312 " fill-opacity="1" fill-rule="nonzero"/></g></svg>