<?xml version="1.0" encoding="UTF-8"?><svg xmlns="http://www.w3.org/2000/svg" xmlns:xlink="http://www.w3.org/1999/xlink" contentScriptType="text/ecmascript" width="30" zoomAndPan="magnify" contentStyleType="text/css" viewBox="0 0 30 30.000001" height="30.000001" preserveAspectRatio="xMidYMid meet" version="1.0"><defs><clipPath id="clip-0"><path d="M 1 0 L 29.515625 0 L 29.515625 28.304688 L 1 28.304688 Z M 1 0 " clip-rule="nonzero"/></clipPath></defs><g clip-path="url(#clip-0)"><path fill="rgb(100%, 78.42865%, 42.349243%)" d="M 13.757812 0.980469 C 7.3125 1.679688 2.128906 6.867188 1.425781 13.171875 C 0.585938 20.179688 4.929688 26.203125 11.09375 28.167969 L 11.09375 24.941406 C 11.09375 24.941406 10.535156 25.082031 9.832031 25.082031 C 7.871094 25.082031 7.03125 23.402344 6.890625 22.421875 C 6.75 21.859375 6.472656 21.441406 6.050781 21.019531 C 5.628906 20.878906 5.492188 20.878906 5.492188 20.738281 C 5.492188 20.460938 5.910156 20.460938 6.050781 20.460938 C 6.890625 20.460938 7.59375 21.441406 7.871094 21.859375 C 8.574219 22.980469 9.414062 23.261719 9.832031 23.261719 C 10.394531 23.261719 10.8125 23.121094 11.09375 22.980469 C 11.234375 22 11.65625 21.019531 12.496094 20.460938 C 9.273438 19.757812 6.890625 17.9375 6.890625 14.855469 C 6.890625 13.3125 7.59375 11.769531 8.574219 10.648438 C 8.433594 10.371094 8.292969 9.667969 8.292969 8.6875 C 8.292969 8.128906 8.292969 7.285156 8.710938 6.445312 C 8.710938 6.445312 10.675781 6.445312 12.636719 8.269531 C 13.335938 7.988281 14.316406 7.847656 15.296875 7.847656 C 16.277344 7.847656 17.257812 7.988281 18.097656 8.269531 C 19.921875 6.445312 22.023438 6.445312 22.023438 6.445312 C 22.300781 7.285156 22.300781 8.128906 22.300781 8.6875 C 22.300781 9.808594 22.164062 10.371094 22.023438 10.648438 C 23.003906 11.769531 23.703125 13.171875 23.703125 14.855469 C 23.703125 17.9375 21.320312 19.757812 18.097656 20.460938 C 18.941406 21.160156 19.5 22.421875 19.5 23.683594 L 19.5 28.304688 C 25.246094 26.484375 29.308594 21.160156 29.308594 14.992188 C 29.308594 6.585938 22.164062 0 13.757812 0.980469 Z M 13.757812 0.980469 " fill-opacity="1" fill-rule="nonzero"/></g></svg>