<?xml version="1.0" encoding="UTF-8"?><svg xmlns="http://www.w3.org/2000/svg" xmlns:xlink="http://www.w3.org/1999/xlink" contentScriptType="text/ecmascript" width="30" zoomAndPan="magnify" contentStyleType="text/css" viewBox="0 0 30 30.000001" height="30.000001" preserveAspectRatio="xMidYMid meet" version="1.0"><defs><clipPath id="clip-0"><path d="M 1.171875 0.6875 L 28.75 0.6875 L 28.75 28.269531 L 1.171875 28.269531 Z M 1.171875 0.6875 " clip-rule="nonzero"/></clipPath></defs><path fill="rgb(27.449036%, 75.289917%, 61.569214%)" d="M 14.960938 11.601562 C 13.375 11.601562 12.085938 12.890625 12.085938 14.476562 C 12.085938 16.0625 13.375 17.351562 14.960938 17.351562 C 16.546875 17.351562 17.835938 16.0625 17.835938 14.476562 C 17.835938 12.890625 16.546875 11.601562 14.960938 11.601562 Z M 14.960938 11.601562 " fill-opacity="1" fill-rule="nonzero"/><path fill="rgb(27.449036%, 75.289917%, 61.569214%)" d="M 19.097656 9.96875 C 18.894531 9.96875 18.726562 10.136719 18.726562 10.339844 C 18.726562 10.546875 18.894531 10.710938 19.097656 10.710938 C 19.304688 10.710938 19.46875 10.546875 19.46875 10.339844 C 19.46875 10.136719 19.304688 9.96875 19.097656 9.96875 Z M 19.097656 9.96875 " fill-opacity="1" fill-rule="nonzero"/><g clip-path="url(#clip-0)"><path fill="rgb(27.449036%, 75.289917%, 61.569214%)" d="M 14.960938 0.6875 C 7.359375 0.6875 1.171875 6.875 1.171875 14.476562 C 1.171875 22.082031 7.359375 28.269531 14.960938 28.269531 C 22.5625 28.269531 28.75 22.082031 28.75 14.476562 C 28.75 6.875 22.5625 0.6875 14.960938 0.6875 Z M 22.839844 16.960938 C 22.839844 19.9375 20.417969 22.359375 17.445312 22.359375 L 12.480469 22.359375 C 9.503906 22.359375 7.082031 19.9375 7.082031 16.960938 L 7.082031 11.996094 C 7.082031 9.019531 9.503906 6.597656 12.480469 6.597656 L 17.445312 6.597656 C 20.417969 6.597656 22.839844 9.019531 22.839844 11.996094 Z M 22.839844 16.960938 " fill-opacity="1" fill-rule="nonzero"/></g><path fill="rgb(27.449036%, 75.289917%, 61.569214%)" d="M 17.445312 7.726562 L 12.480469 7.726562 C 10.125 7.726562 8.210938 9.640625 8.210938 11.996094 L 8.210938 16.960938 C 8.210938 19.3125 10.125 21.230469 12.480469 21.230469 L 17.445312 21.230469 C 19.796875 21.230469 21.710938 19.3125 21.710938 16.960938 L 21.710938 11.996094 C 21.710938 9.640625 19.796875 7.726562 17.445312 7.726562 Z M 14.960938 18.480469 C 12.753906 18.480469 10.957031 16.683594 10.957031 14.476562 C 10.957031 12.269531 12.753906 10.472656 14.960938 10.472656 C 17.167969 10.472656 18.964844 12.269531 18.964844 14.476562 C 18.964844 16.683594 17.167969 18.480469 14.960938 18.480469 Z M 19.097656 11.839844 C 18.269531 11.839844 17.597656 11.167969 17.597656 10.339844 C 17.597656 9.511719 18.269531 8.839844 19.097656 8.839844 C 19.925781 8.839844 20.597656 9.511719 20.597656 10.339844 C 20.597656 11.167969 19.925781 11.839844 19.097656 11.839844 Z M 19.097656 11.839844 " fill-opacity="1" fill-rule="nonzero"/></svg>