<?xml version="1.0" encoding="UTF-8"?><svg xmlns="http://www.w3.org/2000/svg" xmlns:xlink="http://www.w3.org/1999/xlink" contentScriptType="text/ecmascript" width="30" zoomAndPan="magnify" contentStyleType="text/css" viewBox="0 0 30 30.000001" height="30.000001" preserveAspectRatio="xMidYMid meet" version="1.0"><defs><clipPath id="clip-0"><path d="M 1 1.0625 L 29 1.0625 L 29 27.917969 L 1 27.917969 Z M 1 1.0625 " clip-rule="nonzero"/></clipPath></defs><g clip-path="url(#clip-0)"><path fill="rgb(27.449036%, 75.289917%, 61.569214%)" d="M 15.007812 1.0625 C 14.128906 1.0625 13.253906 1.148438 12.390625 1.320312 C 11.523438 1.488281 10.683594 1.746094 9.871094 2.082031 C 9.054688 2.417969 8.28125 2.828125 7.550781 3.320312 C 6.816406 3.808594 6.136719 4.363281 5.515625 4.984375 C 4.890625 5.605469 4.335938 6.28125 3.84375 7.015625 C 3.355469 7.746094 2.941406 8.515625 2.605469 9.328125 C 2.265625 10.140625 2.011719 10.980469 1.839844 11.84375 C 1.667969 12.703125 1.582031 13.574219 1.582031 14.457031 C 1.582031 15.335938 1.667969 16.207031 1.839844 17.066406 C 2.011719 17.929688 2.265625 18.769531 2.605469 19.582031 C 2.941406 20.394531 3.355469 21.164062 3.84375 21.894531 C 4.335938 22.628906 4.890625 23.304688 5.515625 23.925781 C 6.136719 24.546875 6.816406 25.101562 7.550781 25.59375 C 8.28125 26.082031 9.054688 26.492188 9.871094 26.828125 C 10.683594 27.167969 11.523438 27.421875 12.390625 27.589844 C 13.253906 27.761719 14.128906 27.847656 15.007812 27.847656 C 15.890625 27.847656 16.761719 27.761719 17.628906 27.589844 C 18.492188 27.421875 19.332031 27.167969 20.148438 26.828125 C 20.960938 26.492188 21.734375 26.082031 22.46875 25.59375 C 23.203125 25.101562 23.878906 24.546875 24.503906 23.925781 C 25.125 23.304688 25.683594 22.628906 26.171875 21.894531 C 26.664062 21.164062 27.078125 20.394531 27.414062 19.582031 C 27.75 18.769531 28.007812 17.929688 28.179688 17.066406 C 28.351562 16.207031 28.4375 15.335938 28.4375 14.457031 C 28.4375 13.574219 28.351562 12.703125 28.179688 11.84375 C 28.007812 10.980469 27.75 10.140625 27.414062 9.328125 C 27.078125 8.515625 26.664062 7.746094 26.171875 7.015625 C 25.683594 6.28125 25.125 5.605469 24.503906 4.984375 C 23.878906 4.363281 23.203125 3.808594 22.46875 3.320312 C 21.734375 2.828125 20.960938 2.417969 20.148438 2.082031 C 19.332031 1.746094 18.492188 1.488281 17.628906 1.320312 C 16.761719 1.148438 15.890625 1.0625 15.007812 1.0625 Z M 15.007812 1.0625 " fill-opacity="1" fill-rule="nonzero"/></g><path fill="rgb(100%, 100%, 100%)" d="M 8.296875 11.105469 L 10.980469 11.105469 L 10.980469 21.152344 L 8.296875 21.152344 Z M 9.628906 9.765625 L 9.613281 9.765625 C 8.8125 9.765625 8.296875 9.171875 8.296875 8.425781 C 8.296875 7.667969 8.828125 7.089844 9.644531 7.089844 C 10.460938 7.089844 10.964844 7.667969 10.980469 8.425781 C 10.980469 9.171875 10.460938 9.765625 9.628906 9.765625 Z M 22.394531 14.789062 C 22.394531 12.753906 20.742188 11.105469 18.703125 11.105469 C 17.453125 11.105469 16.347656 11.726562 15.679688 12.675781 L 15.679688 11.105469 L 12.996094 11.105469 L 12.996094 21.152344 L 15.679688 21.152344 L 15.679688 15.792969 C 15.679688 14.683594 16.582031 13.785156 17.695312 13.785156 C 18.808594 13.785156 19.707031 14.683594 19.707031 15.792969 L 19.707031 21.152344 L 22.394531 21.152344 C 22.394531 21.152344 22.394531 15.070312 22.394531 14.789062 Z M 22.394531 14.789062 " fill-opacity="1" fill-rule="nonzero"/></svg>