<?xml version="1.0" encoding="UTF-8"?><svg xmlns="http://www.w3.org/2000/svg" xmlns:xlink="http://www.w3.org/1999/xlink" contentScriptType="text/ecmascript" width="30" zoomAndPan="magnify" contentStyleType="text/css" viewBox="0 0 30 30.000001" height="30.000001" preserveAspectRatio="xMidYMid meet" version="1.0"><defs><clipPath id="clip-0"><path d="M 1.429688 0.90625 L 29.011719 0.90625 L 29.011719 28.484375 L 1.429688 28.484375 Z M 1.429688 0.90625 " clip-rule="nonzero"/></clipPath></defs><g clip-path="url(#clip-0)"><path fill="rgb(100%, 78.42865%, 42.349243%)" d="M 6.394531 7.800781 L 24.046875 7.800781 C 24.3125 7.800781 24.527344 8.046875 24.527344 8.351562 L 24.527344 21.039062 C 24.527344 21.34375 24.3125 21.589844 24.046875 21.589844 L 6.394531 21.589844 C 6.125 21.589844 5.910156 21.34375 5.910156 21.039062 L 5.910156 8.351562 C 5.910156 8.046875 6.125 7.800781 6.394531 7.800781 Z M 15.21875 0.90625 C 7.605469 0.90625 1.429688 7.078125 1.429688 14.695312 C 1.429688 22.308594 7.605469 28.484375 15.21875 28.484375 C 22.835938 28.484375 29.011719 22.308594 29.011719 14.695312 C 29.011719 7.078125 22.835938 0.90625 15.21875 0.90625 " fill-opacity="1" fill-rule="nonzero"/></g><path fill="rgb(100%, 78.42865%, 42.349243%)" d="M 20.144531 14.695312 L 12.921875 18.863281 L 12.921875 10.523438 Z M 20.144531 14.695312 " fill-opacity="1" fill-rule="nonzero"/></svg>